<svg width="124" height="24" xmlns="http://www.w3.org/2000/svg"><path d="m6 19 4-1 2-4c-1-1-2-3-5-4H6L5 9l1-1 1 1 4-1c-1-2-2-3-5-3L2 6a4 4 0 0 0-1 4v1l1 1 1 1a14 14 0 0 0 1 0h1l1 1h1v1H6l-2-1-4 1c0 2 2 4 6 4zm11 0 4-2v1h5V5h-5v8l-1 2-2-2V5h-5v8c0 4 1 6 4 6zm17-1v-7l1-2 2 2v7h5v-7c0-4-2-6-5-6l-3 2V5h-6v13h6zm15 0v-7l1-2c2 0 2 1 2 2v7h5v-7c0-4-1-6-4-6l-4 2V5h-5v13h5zm16 6 8-19h-5l-3 7-2-7h-5l5 12-3 7h5zm14-5 4-1 1-4c0-1-1-3-4-4h-1l-1-1 1-1 1 1 4-1c-1-2-3-3-5-3l-4 1a4 4 0 0 0-1 4v1l1 1 1 1a14 14 0 0 0 1 0l2 1h1v1h-1l-3-1-3 1c0 2 2 4 6 4zm9-14 3-1V1l-3-1-2 1v3l2 1zm3 13V5h-5v13h5zm8 1 3-2v1h6V0h-6v7l-3-2-5 2-1 5 1 5 5 2zm1-4-2-1v-4l2-1 2 1 1 2-1 2-2 1zm17 4 6-3-2-2-4 1-2-1-1-1h10v-1l-2-5-6-2-5 2-2 5 2 5 6 2zm2-8h-5l1-2h3l1 2z" fill="hsl(167, 40%, 24%)"/></svg>